# xmcd
#
# Track frame offsets: 
#        150
#        11817
#        24640
#        36687
#        50360
#        60915
#        74925
#        83885
#        94245
#        109137
#
# Disc length: 1617 seconds
#
# Revision: 1
# Processed by: cddbd v1.5.2PL0 Copyright (c) Steve Scherf et al.
# Submitted via: ExactAudioCopy v0.99pb3
#
DISCID=8d064f0a
DTITLE=Various Artist - The 101 Greatest Country Hits Vol 7:  Country Nights
DYEAR=1994
DGENRE=Country
TTITLE0=Crystal Gayle - Don't It Make My Brown Eyes Blue
TTITLE1=Jerry Wallace - In The Misty Moonlight
TTITLE2=Wanda Jackson - Right or Wrong
TTITLE3=Conway Twitty - You've Never Been This Far Before
TTITLE4=Emmylou Harris - Mr. Sandman
TTITLE5=Jeannie Seely - Don't Touch Me
TTITLE6=Bob Luman - Let's Think About Living
TTITLE7=Connie Smith - Once a Day
TTITLE8=George Jones - He Stopped Loving Her Today
TTITLE9=Jeanne Pruett - Satin Sheets
EXTD=
EXTT0=CRYSTAL GAYLE
EXTT1=JERRY WALLACE
EXTT2=WANDA JACKSON
EXTT3=CONWAY TWITTY
EXTT4=EMMYLOU HARRIS
EXTT5=JEANNIE SEELY
EXTT6=BOB LUMAN
EXTT7=CONNIE SMITH
EXTT8=GEORGE JONES  
EXTT9=JEANNE PRUETT
PLAYORDER=
